<?xml version="1.0" standalone="no"?>
<!DOCTYPE svg PUBLIC "-//W3C//DTD SVG 20010904//EN"
 "http://www.w3.org/TR/2001/REC-SVG-20010904/DTD/svg10.dtd">
<svg version="1.0" xmlns="http://www.w3.org/2000/svg"
 width="512.000000pt" height="512.000000pt" viewBox="0 0 512.000000 512.000000"
 preserveAspectRatio="xMidYMid meet">

<g transform="translate(0.000000,512.000000) scale(0.100000,-0.100000)"
fill="#000000" stroke="none">
<path d="M455 4457 c-43 -24 -85 -91 -85 -137 0 -46 42 -113 85 -137 39 -22
48 -23 347 -23 192 0 317 -4 335 -11 36 -13 79 -54 92 -88 6 -14 87 -469 181
-1011 106 -616 179 -1016 196 -1067 46 -146 167 -309 290 -394 24 -16 44 -32
44 -33 0 -2 -15 -27 -34 -55 -151 -224 -114 -520 88 -709 168 -156 403 -194
611 -98 136 63 236 170 292 312 25 62 27 82 27 194 0 106 -3 133 -22 180 -12
30 -22 56 -22 58 0 1 96 2 213 2 l214 0 -23 -67 c-79 -236 7 -496 213 -636
100 -69 166 -90 298 -95 99 -4 118 -1 189 22 147 50 259 145 326 278 50 100
64 169 57 288 -5 109 -29 184 -87 272 l-37 56 52 37 c138 95 256 265 299 432
21 80 58 318 58 375 1 140 -162 208 -266 110 -38 -37 -42 -49 -71 -232 -13
-87 -33 -182 -44 -211 -59 -153 -187 -263 -349 -298 -37 -8 -292 -11 -835 -11
-861 0 -840 -1 -959 62 -76 41 -163 135 -201 217 -25 57 -41 142 -133 740 -57
372 -106 691 -109 708 l-6 33 630 2 c618 3 630 3 657 24 53 39 69 71 69 134 0
63 -16 95 -69 134 -27 21 -40 21 -688 26 l-661 5 -43 167 c-24 95 -55 190 -71
220 -61 113 -194 211 -321 237 -32 7 -177 11 -370 11 -309 0 -318 -1 -357 -23z
m1996 -3032 c64 -23 104 -59 134 -120 55 -111 16 -244 -89 -310 -43 -26 -59
-30 -120 -30 -57 0 -80 5 -116 25 -58 33 -106 97 -120 163 -40 177 138 333
311 272z m1440 0 c64 -23 104 -59 134 -120 55 -111 16 -244 -89 -310 -43 -26
-59 -30 -120 -30 -57 0 -80 5 -116 25 -58 33 -106 97 -120 163 -40 177 138
333 311 272z"/>
<path d="M4095 4306 c-37 -17 -70 -52 -84 -89 -6 -16 -11 -103 -11 -202 l0
-174 -189 -3 c-207 -3 -216 -6 -265 -72 -29 -39 -29 -133 0 -172 49 -66 58
-69 264 -72 l189 -3 3 -189 c3 -206 6 -215 72 -264 39 -29 133 -29 172 0 66
49 69 58 72 264 l3 189 189 3 c206 3 215 6 264 72 29 39 29 133 0 172 -49 66
-58 69 -264 72 l-189 3 -3 189 c-3 206 -6 215 -70 263 -34 25 -113 32 -153 13z"/>
</g>
</svg>
